<svg class="icon" viewBox="0 0 1024 1024" xmlns="http://www.w3.org/2000/svg"><defs><style/></defs><path d="M512 0a512 512 0 1 0 512 512A512 512 0 0 0 512 0zm209.455 712.145l-6.982 4.655h-53.528l-6.981-6.982-53.528-58.182-72.145-76.8-125.673 132.655a46.545 46.545 0 0 1-53.527 11.636l-13.964-9.309-6.982-6.982-4.654-6.981v-16.291a46.545 46.545 0 0 1 0-9.31v-9.309h2.327l4.655-4.654h2.327l132.655-148.946-128-137.309-4.655-6.981a46.545 46.545 0 0 1 2.327-51.2l6.982-6.982 6.982-4.655a46.545 46.545 0 0 1 55.854 4.655h4.655l65.164 69.818 58.181 62.836 58.182-65.163 62.837-67.491 6.981-6.982h2.328l6.982-4.655h18.618a46.545 46.545 0 0 1 25.6 6.982l6.982 4.655A46.545 46.545 0 0 1 733.09 358.4l-9.31 11.636-128 137.31 25.6 25.6 104.73 111.708 6.982 6.981a46.545 46.545 0 0 1-2.327 51.2z"/></svg>