<?xml version="1.0" encoding="utf-8"?>
<!-- Generator: Adobe Illustrator 21.0.0, SVG Export Plug-In . SVG Version: 6.00 Build 0)  -->
<svg version="1.1" id="图层_1" xmlns="http://www.w3.org/2000/svg" xmlns:xlink="http://www.w3.org/1999/xlink" x="0px" y="0px"
	 viewBox="0 0 42 40" style="enable-background:new 0 0 42 40;" xml:space="preserve">
<g id="Rectangle-83">
</g>
<path class="st0" d="M40,14l-10.9-1.6c-0.7-0.1-1.2-0.5-1.5-1.1l-4.9-9.9c-0.2-0.4-0.5-0.7-0.9-0.9c-1-0.5-2.2-0.1-2.7,0.9l-4.9,9.9
	c-0.3,0.6-0.9,1-1.5,1.1L2,14c-0.4,0.1-0.8,0.3-1.1,0.6c-0.8,0.8-0.8,2.1,0,2.8l7.9,7.7c0.5,0.5,0.7,1.1,0.6,1.8L7.4,37.7
	c-0.1,0.4,0,0.9,0.2,1.3c0.5,1,1.7,1.4,2.7,0.8l9.7-5.1c0.6-0.3,1.3-0.3,1.9,0l9.7,5.1c0.4,0.2,0.8,0.3,1.3,0.2
	c1.1-0.2,1.8-1.2,1.6-2.3l-1.9-10.8c-0.1-0.6,0.1-1.3,0.6-1.8l7.9-7.7c0.3-0.3,0.5-0.7,0.6-1.1C41.9,15.2,41.1,14.2,40,14z"/>
</svg>
