<svg id="图层_1" data-name="图层 1" xmlns="http://www.w3.org/2000/svg" viewBox="0 0 42 41"><g id="Page-1"><g id="Group-25"><path class="cls-1" d="M38 41H4a4 4 0 0 1-4-4V10a4 4 0 0 1 4-4h34a4 4 0 0 1 4 4v27a4 4 0 0 1-4 4zM4 10v27h34V10z" id="Rectangle-13"/><g id="Group-12"><path class="cls-1" d="M11 0a2 2 0 0 1 2 2v8a2 2 0 0 1-2 2 2 2 0 0 1-2-2V2a2 2 0 0 1 2-2z" id="Rectangle-14"/><path class="cls-1" d="M31 0a2 2 0 0 1 2 2v8a2 2 0 0 1-2 2 2 2 0 0 1-2-2V2a2 2 0 0 1 2-2z" id="Rectangle-14-2" data-name="Rectangle-14"/></g><path class="cls-1" d="M0 15h41v4H0z" id="Rectangle-15"/><g id="Group-7"><path class="cls-1" d="M8 22h2a2 2 0 0 1 2 2 2 2 0 0 1-2 2H8a2 2 0 0 1-2-2 2 2 0 0 1 2-2z" id="Rectangle-16"/><path class="cls-1" d="M20 22h2a2 2 0 0 1 2 2 2 2 0 0 1-2 2h-2a2 2 0 0 1-2-2 2 2 0 0 1 2-2z" id="Rectangle-16-2" data-name="Rectangle-16"/><path class="cls-1" d="M32 22h2a2 2 0 0 1 2 2 2 2 0 0 1-2 2h-2a2 2 0 0 1-2-2 2 2 0 0 1 2-2z" id="Rectangle-16-3" data-name="Rectangle-16"/></g><g id="Group-7-2" data-name="Group-7"><path class="cls-1" d="M8 30h2a2 2 0 0 1 2 2 2 2 0 0 1-2 2H8a2 2 0 0 1-2-2 2 2 0 0 1 2-2z" id="Rectangle-16-4" data-name="Rectangle-16"/><path class="cls-1" d="M20 30h2a2 2 0 0 1 2 2 2 2 0 0 1-2 2h-2a2 2 0 0 1-2-2 2 2 0 0 1 2-2z" id="Rectangle-16-5" data-name="Rectangle-16"/><path class="cls-1" d="M32 30h2a2 2 0 0 1 2 2 2 2 0 0 1-2 2h-2a2 2 0 0 1-2-2 2 2 0 0 1 2-2z" id="Rectangle-16-6" data-name="Rectangle-16"/></g></g></g></svg>
