<svg viewBox="0 0 48 30" xmlns="http://www.w3.org/2000/svg"><g fill="none"><path fill="#F5F5F5" d="M.26.26h47.462v29.468H.26z"/><path d="M2.086 21.644h1.565v.522H2.086v-.522zm42.767 0h1.043v.522h-1.043v-.522zm-3.39-1.695l-.443-.443v-5.998h1.2v.443h-.027a.88.88 0 0 0-.886.887.88.88 0 0 0 .886.887.88.88 0 0 0 .887-.887.88.88 0 0 0-.574-.834v-.757h-1.46v-1.356h-.26v1.356h-1.227v.704a.887.887 0 0 0-.834.887.88.88 0 0 0 .887.887.88.88 0 0 0 .886-.887.893.893 0 0 0-.678-.86v-.47h.965v6.024l-.443.443v1.67h-2.608c-.026-.235-.078-.548-.365-.861-.365-.365-.835-.313-1.095-.261-.026-.052-.079-.078-.105-.13-.521-.522-1.251-.418-1.564-.313v-2.921h.234v-1.07h-.156l-1.539-1.512V10.64l.757.756.73-.73-4.538-4.538-2.581 2.582-3.677-3.703-3.442 3.442L17.94 6.05l-4.615 4.564.808.808.417-.417v3.572l-1.51 1.513h-.079v1.069h.235v2.973c-.339-.105-1.043-.209-1.564.313l-.105.104c-.26-.052-.73-.078-1.069.26a1.223 1.223 0 0 0-.365.861H8.084v-1.695l-.443-.443v-5.998h1.2v.443h-.027a.88.88 0 0 0-.886.887.88.88 0 0 0 .886.887.88.88 0 0 0 .887-.887.88.88 0 0 0-.574-.834v-.757h-1.46v-1.356h-.261v1.356H6.18v.704a.887.887 0 0 0-.834.887.88.88 0 0 0 .887.887.88.88 0 0 0 .886-.887.893.893 0 0 0-.678-.86v-.47h.965v6.024l-.443.443v1.643h-2.53v.522h2.764V20.08l.313-.313.313.313v2.112h36.509v-.522h-2.869v-1.72zm1.356-5.137a.635.635 0 0 1-.626.626.635.635 0 0 1-.626-.626c0-.339.287-.626.626-.626.34 0 .626.287.626.626zm-2.608 0a.635.635 0 0 1-.625.626.635.635 0 0 1-.626-.626c0-.339.286-.626.626-.626.339 0 .625.287.625.626zm-30.771 0a.635.635 0 0 1-.626.626.635.635 0 0 1-.626-.626c0-.339.287-.626.626-.626.34 0 .626.287.626.626zm-2.608 0a.635.635 0 0 1-.626.626.635.635 0 0 1-.625-.626c0-.339.286-.626.625-.626.34 0 .626.287.626.626zm33.744 5.268l.313-.313.313.313v1.564h-.626V20.08zm-3.442.912c.235.235.287.496.313.652h-.834a1.78 1.78 0 0 0-.235-.86.805.805 0 0 1 .756.208zm-1.225-.39c.078.077.13.156.182.234.183.287.235.6.235.782h-1.513c-.026-.182-.078-.417-.287-.626l-.026-.026v-.626c.261-.026.94-.208 1.409.261zM13.22 16.35h7.302v.547H13.22v-.547zm7.823-7.067h5.529l.808.808v4.72h-7.093v-4.746l.756-.782zm.261-.261l2.504-2.504 2.503 2.504h-5.007zm-1.017 6.05h7.093v.547h-7.093v-.547zM34.5 16.898h-7.3v-.547h7.3v.547zm-9.492 3.912h-2.112v-3.938h2.112v3.938zm-2.373-4.199v4.199h-.86v-4.93h4.302v4.929h-.808V16.61h-2.634zm3.703-.73h.6v4.929h-.6v-4.93zm-4.824 0v4.929h-.73v-4.93h.73zm-.991 1.278v3.65h-.235v-3.05H14.29v3.077a1.143 1.143 0 0 0-.834 0v-3.677h7.067zm-7.171 4.068c.313-.313.756-.183.938-.104v.521h-1.147c0-.13.052-.287.209-.417zm1.2-3.208h5.475v3.625h-5.476V18.02zm5.736 3.052h6.676v.573h-6.676v-.573zm6.91 0v-3.912h7.068v3.677a1.143 1.143 0 0 0-.835 0v-3.077h-5.998v3.885H27.2v-.573zm.522-3.052h5.477v3.625H27.72V18.02zm5.737 3.078c.157-.079.626-.209.94.104.13.13.182.313.208.417h-1.148v-.521zM27.2 16.09v-.209h.443V14.76h5.346l1.356 1.33H27.2zm5.71-1.591h-5.267v-4.146l.496.495.756-.756-.678-.678 1.851-1.852 2.817 2.817v4.12h.026zm-2.816-8.032l4.173 4.173-.365.365-3.808-3.808-2.034 2.034-.365-.365 2.4-2.399zm-1.564 3.625l-.391.391-4.33-4.329-4.276 4.303-.391-.391.834-.809.444-.443 3.416-3.416 4.694 4.694zm-9.232-.548h-3.26l1.93-1.93 1.643 1.643-.313.287zm-5.606 1.07l4.25-4.199 2.269 2.243-.443.443-1.826-1.825-3.781 3.78-.47-.442zm2.086-.809h3.26l-.261.26.756.757.495-.495v4.172h-5.215v-3.755l.965-.939zm-1.043 4.955H20v1.121h.496v.209h-7.093l1.33-1.33zm-1.539 5.633v.625l-.026.026c-.209.21-.26.444-.287.626H11.37c0-.208.052-.521.234-.808.027 0 .053.026.053.026l.078-.156.078-.079c.47-.521 1.147-.339 1.382-.26zm-2.555.6c.208-.21.495-.235.704-.21a1.858 1.858 0 0 0-.235.861h-.782c.026-.182.078-.443.313-.652z" fill="#B4B4B4"/><path d="M15.151 20.81h4.303v.26H15.15v-.26zm1.825-1.043h2.478v.26h-2.478v-.26zm-1.825 0h1.173v.26h-1.173v-.26zm0-1.043h1.956v.26H15.15v-.26zm2.477 0h.652v.26h-.652v-.26zm1.174-.053h.652v.261h-.652v-.26zm-2.608-4.615h3.39v-.835h-.339v-2.347h-2.764v2.347h-.287v.835zm1.8-.809v-.912h.99v.912h-.99zm.99-1.173h-.99v-.913h.99v.913zm-1.251-.913v.913h-.991v-.913h.99zm-.991 1.174h.99v.912h-.99v-.912zm-.287 1.173h2.868v.313h-2.868v-.313zM28.894 10.9v2.347h-.287v.835h3.39v-.835h-.339V10.9h-2.764zm1.512 2.347v-.912h.991v.912h-.99zm.991-1.173h-.99v-.913h.99v.913zm-1.252-.913v.913h-.99v-.913h.99zm-.99 1.174h.99v.912h-.99v-.912zm2.555 1.46h-2.868v-.313h2.868v.313zm-10.092.495h4.329v-1.069h-.574V11.37c-.052-.913-.782-1.695-1.59-1.695-.809 0-1.539.782-1.591 1.695v1.851h-.548v1.07h-.026zm2.165-4.328c.678 0 1.277.652 1.33 1.434h-2.686c.078-.782.678-1.434 1.356-1.434zm-1.356 1.695h2.686v1.59h-2.686v-1.59zm-.548 1.851h3.807v.548H21.88v-.548zm2.373 5.737a.26.26 0 1 0 .522 0 .26.26 0 0 0-.522 0zm4.016 1.565h4.303v.26h-4.303v-.26zm.052-1.043h2.477v.26H28.32v-.26zm3.077 0h1.174v.26h-1.174v-.26zm-.782-1.043h1.956v.26h-1.956v-.26zm-1.121 0h.651v.26h-.651v-.26zm-1.174-.053h.652v.261h-.652v-.26zm-15.672 6.754l-.965.105-.026-.261c.26-.026.6-.052.99-.078v-.34h-.495c-.182 0-.287.027-.339.053-.026-.052-.052-.209-.104-.287.078 0 .13-.078.208-.182a2.25 2.25 0 0 1 .209-.287h-.47v-.235h.6c.053-.104.105-.183.13-.287l.314.078c-.026.079-.079.13-.13.209h.964v.235h-1.121c-.104.156-.235.313-.34.443h.548v-.26h.287v.26h.652v.26h-.652v.314l.626-.079v.235l-.626.078v.418h-.287v-.392h.027zm-.47.444h2.712v1.538h-.313v-.13h-2.112v.156h-.287V25.87zm.287.26v.34h2.112v-.34h-2.112zm2.112.913v-.339h-2.112v.34h2.112zm.809-2.242h-.496v.99h-.287v-.99h-.547c-.026.339-.105.73-.34.99a1.225 1.225 0 0 0-.234-.156c.26-.339.287-.782.287-1.121v-.626c.47-.026 1.017-.104 1.304-.209l.156.235c-.313.104-.782.156-1.2.209v.417h1.357v.26zm3.65 2.242c.21 0 .235-.104.261-.652.079.052.209.105.287.13-.052.653-.13.835-.547.835h-.783c-.417 0-.547-.104-.547-.47v-1.433h-.079c-.182.808-.6 1.564-1.669 2.008-.052-.079-.13-.21-.208-.261.99-.365 1.382-1.043 1.564-1.747h-1.512v-.313h1.565c.052-.313.052-.626.078-.913h-1.382v-.313h3.233v.313H17.76c0 .287-.026.626-.079.913h1.852v.313H18.02v1.434c0 .156.053.182.261.182h.757v-.026zm1.643-2.008c0 .678-.052 1.695-.469 2.4a1.012 1.012 0 0 0-.287-.157c.391-.652.417-1.59.417-2.243v-.99h1.409c-.053-.105-.079-.235-.13-.34l.286-.078c.078.13.13.287.183.417h1.382v.965l-2.79.026zm1.226.783c-.026.13-.026.26-.052.365h1.486v.13c-.052.6-.104.86-.208.965-.079.078-.157.104-.287.104h-.574c0-.078-.052-.182-.078-.26.235.026.47.026.547.026.079 0 .13 0 .157-.026.078-.053.104-.235.156-.652h-1.251c-.13.443-.418.782-.991.99a.526.526 0 0 0-.183-.234c.73-.261.913-.73.965-1.382h-.782v-.261h1.33a3.642 3.642 0 0 0-.235-.443l.26-.105c.105.13.21.313.262.444l-.235.078H23.6v.26h-1.695zm-1.226-1.513v.443h2.478v-.443h-2.478zm4.173 1.148c-.157-.13-.47-.313-.704-.444l.182-.208c.235.13.548.313.704.417l-.182.235zm.26.573c-.182.444-.417.965-.6 1.33l-.286-.182c.182-.313.443-.86.626-1.33l.26.182zm-.078-1.669a5.49 5.49 0 0 0-.704-.47l.183-.208c.234.13.547.313.704.444l-.183.234zm.652.6c0 .73-.078 1.747-.573 2.451a.868.868 0 0 0-.261-.156c.47-.678.521-1.617.521-2.295V23.81h2.53v.287H25.66v.86h.026zm.678 1.356c-.13.313-.339.626-.521.86-.052-.051-.183-.104-.261-.156a3.34 3.34 0 0 0 .495-.782l.287.078zm.6-.287v1.096c0 .156-.026.234-.13.286-.105.053-.287.053-.574.053 0-.079-.052-.183-.078-.261h.417c.052 0 .078-.026.078-.052V26.05h-.756v-1.434h.626c.052-.13.104-.313.13-.417l.34.078c-.053.13-.105.235-.183.34h.912v1.433h-.782v-.026zm-.756-.834h1.278v-.365h-1.278v.365zm0 .573h1.278V25.4h-1.278v.365zm1.304.444c.156.26.365.6.47.808l-.288.13a7 7 0 0 0-.47-.808l.288-.13zm4.459-2.4v3.625h-.313v-.182h-2.842v.182h-.313V23.81h3.468zm-.313 3.182v-2.92h-2.842v2.894h2.842v.026zm-.391-2.399a2.353 2.353 0 0 1-.73.704c.313.157.678.26 1.043.34-.052.051-.13.156-.183.234a4.137 4.137 0 0 1-1.121-.417 5.91 5.91 0 0 1-1.226.469c-.026-.078-.104-.183-.156-.26a6.244 6.244 0 0 0 1.121-.366 3.002 3.002 0 0 1-.443-.365c-.13.104-.261.209-.391.287a1.306 1.306 0 0 0-.209-.183 2.63 2.63 0 0 0 .913-.86l.26.078-.156.235h1.121l.157.104zM29.44 26.26c.548.052 1.278.209 1.67.365l-.131.235a8.845 8.845 0 0 0-1.669-.365l.13-.235zm.418-.496c.339.079.756.21.99.313l-.13.209c-.235-.104-.652-.26-.99-.313l.13-.209zm-.13-.99c.13.156.312.286.52.417.235-.13.418-.287.574-.444l-1.095.027zm3.676.339c0 .182 0 .365-.026.573h2.06v1.747H35.1V26h-1.747c-.078.522-.235 1.017-.626 1.46a1.003 1.003 0 0 0-.235-.234c.522-.6.574-1.356.574-2.086v-1.41h.313v.965h1.174v-1.069h.312v1.07h1.174v.312h-2.686v.105h.052z" fill="#B4B4B4"/></g></svg>