<svg xmlns="http://www.w3.org/2000/svg" viewBox="0 0 46 36"><path class="st0" d="M27 24h-8c-1.1 0-2 .9-2 2v8c0 1.1.9 2 2 2h8c1.1 0 2-.9 2-2v-8c0-1.1-.9-2-2-2zm-2 8h-4v-4h4v4z"/><path class="st0" d="M44 24h-2v-6c0-1.1-.9-2-2-2H25v-4h2c1.1 0 2-.9 2-2V2c0-1.1-.9-2-2-2h-8c-1.1 0-2 .9-2 2v8c0 1.1.9 2 2 2h2v4H6c-1.1 0-2 .9-2 2v6H2c-1.1 0-2 .9-2 2v8c0 1.1.9 2 2 2h8c1.1 0 2-.9 2-2v-8c0-1.1-.9-2-2-2H8v-4h30v4h-2c-1.1 0-2 .9-2 2v8c0 1.1.9 2 2 2h8c1.1 0 2-.9 2-2v-8c0-1.1-.9-2-2-2zM21 4h4v4h-4V4zM8 32H4v-4h4v4zm34 0h-4v-4h4v4z"/></svg>