<svg xmlns="http://www.w3.org/2000/svg" viewBox="0 0 40 44"><path class="st0" d="M34 14c-1 0-1.7.7-1.9 1.6H32V40H4V5h23c.8 0 1.6-.5 1.9-1.3.5-1.4-.6-2.7-1.9-2.7H2C.9 1 0 1.9 0 3v39c0 1.1.9 2 2 2h32c1.1 0 2-.9 2-2V15.6h-.1c-.2-.9-.9-1.6-1.9-1.6z"/><path class="st0" d="M39.4.6c-.8-.8-2-.8-2.8 0l-16 16c-.8.8-.8 2 0 2.8.4.4.9.6 1.4.6s1-.2 1.4-.6l16-16c.8-.8.8-2 0-2.8zM18 20h-8c-1.1 0-2 .9-2 2s.9 2 2 2h8c1.1 0 2-.9 2-2s-.9-2-2-2zM8 32c0 1.1.9 2 2 2h16c1.1 0 2-.9 2-2s-.9-2-2-2H10c-1.1 0-2 .9-2 2z"/></svg>