<?xml version="1.0" encoding="utf-8"?>
<!-- Generator: Adobe Illustrator 21.1.0, SVG Export Plug-In . SVG Version: 6.00 Build 0)  -->
<svg version="1.1" id="图层_1" xmlns="http://www.w3.org/2000/svg" xmlns:xlink="http://www.w3.org/1999/xlink" x="0px" y="0px"
	 viewBox="0 0 48 48" style="enable-background:new 0 0 48 48;" xml:space="preserve">
<path d="M24,7C14.3,7,5.7,13.7,2,24c3.7,10.3,12.3,17,22,17s18.3-6.7,22-17C42.3,13.7,33.7,7,24,7z M24,38.6
	c-8.4,0-16.1-5.6-19.7-14.4L4.2,24l0.1-0.2C7.9,15.1,15.6,9.4,24,9.4c8.4,0,16.1,5.6,19.7,14.4l0.1,0.2l-0.1,0.2
	C40.1,32.9,32.4,38.6,24,38.6z"/>
<path d="M24,16.5c-4.2,0-7.6,3.4-7.6,7.6c0,4.2,3.4,7.6,7.6,7.6s7.6-3.4,7.6-7.6C31.6,19.9,28.2,16.5,24,16.5z M24,29.7
	c-3.1,0-5.6-2.5-5.6-5.6c0-3.1,2.5-5.6,5.6-5.6c3.1,0,5.6,2.5,5.6,5.6C29.6,27.1,27.1,29.7,24,29.7z"/>
</svg>
