<?xml version="1.0" encoding="utf-8"?>
<!-- Generator: Adobe Illustrator 21.1.0, SVG Export Plug-In . SVG Version: 6.00 Build 0)  -->
<svg version="1.1" id="图层_1" xmlns="http://www.w3.org/2000/svg" xmlns:xlink="http://www.w3.org/1999/xlink" x="0px" y="0px"
	 viewBox="0 0 48 48" style="enable-background:new 0 0 48 48;" xml:space="preserve">
<style type="text/css">
	.st0{clip-path:url(#SVGID_2_);}
	.st1{clip-path:url(#SVGID_4_);fill:#F5CC98;}
</style>
<g>
	<defs>
		<path id="SVGID_1_" d="M-314.5-168.9c0-0.2-0.1-0.4-0.4-0.4s-2,0-2.3,0s-0.4,0.2-0.4,0.4c0,0.9,0.7,1.6,1.5,1.6
			S-314.5-168-314.5-168.9z M-316-182c-0.7,0-1.2,0.5-1.4,1.2c-2,0.6-3.5,2.6-3.5,4.9v2.5c-0.7,0.5-1.2,1.3-1.2,2.1v0
			c0,0.3,0.1,0.7,0.2,1l0,0c0.1,0.2,0.3,0.4,0.5,0.5c0.1,0,0.2,0.1,0.3,0.1h9.9c0.1,0,0.1,0,0.2,0c0.3,0,0.5-0.2,0.7-0.5
			c0.1-0.3,0.2-0.7,0.2-1v0c0-0.8-0.3-1.5-0.9-2v-2.7c0-2.3-1.5-4.4-3.7-4.9C-314.8-181.5-315.3-182-316-182z"/>
	</defs>
	<clipPath id="SVGID_2_">
		<use xlink:href="#SVGID_1_"  style="overflow:visible;"/>
	</clipPath>
	<g class="st0">
		<defs>
			<rect id="SVGID_3_" x="-618" y="-826" width="1280" height="1697"/>
		</defs>
		<clipPath id="SVGID_4_">
			<use xlink:href="#SVGID_3_"  style="overflow:visible;"/>
		</clipPath>
		<rect x="-327" y="-187" class="st1" width="22" height="24.7"/>
	</g>
</g>
<g>
	<g>
		<path d="M23.7,43.8c-0.2,0-0.3,0-0.5-0.1C22.4,43.2,3.9,31.5,2.5,19.9c-0.4-3.4,0.7-6.5,3.4-9.1c1.8-2,4.4-3.1,7.2-3.1
			c3.7,0,7.5,1.9,10.6,5.2c3.1-3.3,6.9-5.2,10.6-5.2c2.9,0,5.4,1.1,7.2,3.1c2.6,2.6,3.8,5.7,3.4,9.1C43.6,31.5,25,43.2,24.2,43.7
			C24.1,43.8,23.9,43.8,23.7,43.8L23.7,43.8z M13.1,9.5"/>
	</g>
</g>
</svg>
