<svg class="icon" viewBox="0 0 1024 1024" xmlns="http://www.w3.org/2000/svg"><defs><style/></defs><path d="M881.116 404.837h-83.349v-119.07a285.767 285.767 0 0 0-571.534 0v119.07h-83.35a47.628 47.628 0 0 0-47.627 47.628v523.907A47.628 47.628 0 0 0 142.884 1024h738.232a47.628 47.628 0 0 0 47.628-47.628V452.465a47.628 47.628 0 0 0-47.628-47.628zm-559.628-119.07a190.512 190.512 0 0 1 381.024 0v119.07H321.488zm226.233 471.517v52.39h-47.628v-52.39a71.442 71.442 0 1 1 47.628 0z"/><path d="M523.907 619.163a71.442 71.442 0 0 0-23.814 138.12v52.391h47.628v-52.39a71.442 71.442 0 0 0-23.814-138.121z" fill="#FFF"/></svg>