<svg class="icon" viewBox="0 0 1047 1024" xmlns="http://www.w3.org/2000/svg"><defs><style/></defs><path d="M1000.186 404.837H571.535v-119.07a285.767 285.767 0 0 0-571.535 0v214.326h95.256V285.767a190.512 190.512 0 0 1 381.023 0v119.07H261.953a47.628 47.628 0 0 0-47.627 47.628v523.907A47.628 47.628 0 0 0 261.953 1024h738.233a47.628 47.628 0 0 0 47.628-47.628V452.465a47.628 47.628 0 0 0-47.628-47.628zM666.791 757.284v52.39h-47.628v-52.39a71.442 71.442 0 1 1 47.628 0z"/><path d="M642.977 619.163a71.442 71.442 0 0 0-23.814 138.12v52.391h47.628v-52.39a71.442 71.442 0 0 0-23.814-138.121z" fill="#FFF"/></svg>