<?xml version="1.0" standalone="no"?><!DOCTYPE svg PUBLIC "-//W3C//DTD SVG 1.1//EN" "http://www.w3.org/Graphics/SVG/1.1/DTD/svg11.dtd"><svg t="1539158433294" class="icon" style="" viewBox="0 0 1024 1024" version="1.1" xmlns="http://www.w3.org/2000/svg" p-id="1408" xmlns:xlink="http://www.w3.org/1999/xlink" ><defs><style type="text/css"></style></defs><path d="M512 0C228.266667 0 0 228.266667 0 512s228.266667 512 512 512 512-228.266667 512-512S795.733333 0 512 0z m0 925.866667C283.733333 925.866667 98.133333 740.266667 98.133333 512S283.733333 98.133333 512 98.133333 925.866667 283.733333 925.866667 512 740.266667 925.866667 512 925.866667z" p-id="1409"></path><path d="M512 433.066667c-27.733333 0-49.066667 21.333333-49.066667 49.066666v298.666667c0 27.733333 21.333333 49.066667 49.066667 49.066667s49.066667-21.333333 49.066667-49.066667v-298.666667c0-27.733333-21.333333-49.066667-49.066667-49.066666zM437.333333 290.133333c0 40.533333 34.133333 74.666667 74.666667 74.666667s74.666667-34.133333 74.666667-74.666667-34.133333-74.666667-74.666667-74.666666-74.666667 34.133333-74.666667 74.666666z" p-id="1410"></path></svg>
