<svg xmlns="http://www.w3.org/2000/svg" viewBox="0 0 45 45"><path class="st0" d="M7.1 18.9c.8.8 2 .8 2.8 0l10-9.9c.8-.8.8-2 0-2.8L15 1.3c-.8-.8-2-.8-2.8 0l-9.9 9.9c-.8.8-.8 2 0 2.8l4.8 4.9zm6.4-13.4l2.1 2.1-7.1 7.1-2.1-2.1 7.1-7.1zm30.4 24.7L39 25.3c-.8-.8-2-.8-2.8 0l-9.9 9.9c-.8.8-.8 2 0 2.8l4.9 4.9c.8.8 2 .8 2.8 0l9.9-9.9c.7-.8.7-2 0-2.8zm-11.4 8.5l-2.1-2.1 7.1-7.1 2.1 2.1-7.1 7.1zM41.8 15L30.5 3.7c-.8-.8-2-.8-2.8 0L7.2 24.2c-.8.8-.8 2 0 2.8l11.3 11.3c.8.8 2 .8 2.8 0l20.5-20.5c.8-.8.8-2 0-2.8zM19.9 34.1l-8.5-8.5L29.1 7.9l8.5 8.5-17.7 17.7zM10 33H4.5c-.9 0-1.3 1.1-.7 1.7l6.5 6.5c.6.6 1.7.2 1.7-.7V35c0-1.1-.9-2-2-2z"/></svg>