<svg viewBox="0 0 14 14" version="1.1" xmlns="http://www.w3.org/2000/svg" xmlns:xlink="http://www.w3.org/1999/xlink">
    <!-- Generator: Sketch 50 (54983) - http://www.bohemiancoding.com/sketch -->
    <title>Shape-blue</title>
    <desc>Created with Sketch.</desc>
    <defs></defs>
    <g id="icon" stroke="none" stroke-width="1" fill="none" fill-rule="evenodd">
        <path d="M7,0 C3.13359375,0 0,3.13359375 0,7 C0,10.8664062 3.13359375,14 7,14 C10.8664062,14 14,10.8664062 14,7 C14,3.13359375 10.8664062,0 7,0 Z M7.91328125,3.65175781 C7.91328125,4.15625 7.50449219,4.56503906 7,4.56503906 C6.49550781,4.56503906 6.08671875,4.15625 6.08671875,3.65175781 C6.08671875,3.14726563 6.49550781,2.73847656 7,2.73847656 C7.50449219,2.73847656 7.91328125,3.14726563 7.91328125,3.65175781 Z M5.78320313,10.9566406 L5.78320313,10.3482422 L6.39160156,10.3482422 L6.39160156,6.39160156 L5.78320313,6.39160156 L5.78320313,5.78320312 L7.60839844,5.78320312 L7.60839844,10.3482422 L8.21679688,10.3482422 L8.21679688,10.9566406 L5.78320313,10.9566406 Z" id="Shape-blue" fill="#49A7DD" fill-rule="nonzero"></path>
    </g>
</svg>
