<svg viewBox="0 0 14 14" version="1.1" xmlns="http://www.w3.org/2000/svg" xmlns:xlink="http://www.w3.org/1999/xlink">
    <!-- Generator: Sketch 50 (54983) - http://www.bohemiancoding.com/sketch -->
    <title>Shape-red</title>
    <desc>Created with Sketch.</desc>
    <defs></defs>
    <g id="icon" stroke="none" stroke-width="1" fill="none" fill-rule="evenodd">
        <path d="M7,0 C10.85,0 14,3.15 14,7 C14,10.85 10.85,14 7,14 C3.15,14 0,10.85 0,7 C0,3.15 3.15,0 7,0 Z M7.9625,7 L10.325,4.6375 C10.5875,4.375 10.5875,3.9375 10.325,3.675 C10.15,3.5875 9.975,3.5 9.8,3.5 C9.625,3.5 9.45,3.5875 9.3625,3.675 L7,6.0375 L4.6375,3.675 C4.55,3.5875 4.375,3.5 4.1125,3.5 C3.9375,3.5 3.7625,3.5875 3.675,3.675 C3.5875,3.85 3.5,4.025 3.5,4.2 C3.5,4.375 3.5875,4.55 3.675,4.6375 L6.0375,7 L3.675,9.3625 C3.5875,9.5375 3.5,9.7125 3.5,9.8875 C3.5,10.0625 3.5875,10.2375 3.675,10.325 C3.85,10.4125 4.025,10.5 4.2,10.5 C4.375,10.5 4.55,10.4125 4.6375,10.325 L7,7.9625 L9.3625,10.325 C9.45,10.4125 9.625,10.5 9.8,10.5 C9.975,10.5 10.15,10.4125 10.2375,10.325 C10.325,10.2375 10.4125,10.0625 10.4125,9.8 C10.4125,9.625 10.325,9.45 10.2375,9.3625 L7.9625,7 Z" id="Shape-red" fill="#F82C2C" fill-rule="nonzero"></path>
    </g>
</svg>
