<svg xmlns="http://www.w3.org/2000/svg" viewBox="0 0 48 42"><path class="st0" d="M47.7 13L41 0H7L.3 13c-.2.8-.3 1.6-.3 2.5C0 20.7 4.3 25 9.5 25c3.1 0 5.8-1.5 7.6-3.8 1.7 2 4.1 3.3 6.9 3.3s5.3-1.3 6.9-3.3c1.7 2.3 4.5 3.8 7.6 3.8 5.2 0 9.5-4.3 9.5-9.5 0-.9-.1-1.7-.3-2.5zm-9.2 8c-3 0-5.5-2.5-5.5-5.5 0-1.1-.9-2-2-2s-2 .9-2 2c0 2.8-2.2 5-5 5s-5-2.2-5-5c0-1.1-.9-2-2-2s-2 .9-2 2c0 3-2.5 5.5-5.5 5.5S4 18.5 4 15.5c0-.9.2-1.7.6-2.5l4.8-9h29.2l4.8 9c.4.7.6 1.6.6 2.5 0 3-2.5 5.5-5.5 5.5z"/><path class="st0" d="M34.3 26.7c-1.3-.6-2.4-1.3-3.4-2.3-1 .9-2.3 1.6-3.6 2-1 .3-2.1.5-3.3.5s-2.3-.2-3.3-.5c-1.3-.4-2.5-1.1-3.6-2-1.7 1.7-4 2.8-6.5 3-.4 0-.7.1-1.1.1-.3 0-.7 0-1-.1h-.4c-.2 0-.4-.1-.6-.1s-.3-.1-.4-.1c-.2 0-.3-.1-.5-.1s-.3-.1-.5-.2c-.1 0-.2-.1-.2-.1-1-.4-2-.9-2.8-1.5v14.4c0 1.1.9 2 2 2h38c1.1 0 2-.9 2-2V25.4c-1.8 1.4-4.1 2.2-6.5 2.2-1.6-.1-3-.4-4.3-.9zm6.7 11H7v-6.4c.8.1 1.7.2 2.5.2 2.8 0 5.5-.8 7.7-2.2 2 1.1 4.3 1.7 6.8 1.7 2.4 0 4.7-.6 6.8-1.7 2.3 1.4 4.9 2.2 7.7 2.2.9 0 1.7-.1 2.5-.2v6.4z"/></svg>