<svg xmlns="http://www.w3.org/2000/svg" viewBox="0 0 46 46"><path class="st0" d="M41.4 4.6C36.3-.5 28.1-.5 23 4.6l-2.1 2.1c-.4.4-.6.9-.6 1.4 0 1.1.9 2 2 2 .6 0 1.1-.3 1.5-.7l2-2c3.5-3.5 9.2-3.5 12.7 0s3.5 9.2 0 12.7l-2 2c-.4.4-.7.9-.7 1.5 0 1.1.9 2 2 2 .5 0 1-.2 1.4-.6l2.1-2.1c5.2-5 5.2-13.2.1-18.3z"/><path class="st0" d="M26.9 15.6L15.6 26.9c-.8.8-.8 2 0 2.8.4.4.9.6 1.4.6s1-.2 1.4-.6l11.3-11.3c.8-.8.8-2 0-2.8-.8-.8-2-.8-2.8 0z"/><path class="st0" d="M25.6 38c0-1.1-.9-2-2-2-.6 0-1.1.3-1.5.7l-1.9 1.9c-3.5 3.5-9.2 3.5-12.7 0s-3.5-9.2 0-12.7L9.3 24c.4-.4.7-.9.7-1.5 0-1.1-.9-2-2-2-.6 0-1 .2-1.4.6l-2 1.9c-5.1 5.1-5.1 13.3 0 18.4 2.5 2.5 5.9 3.8 9.2 3.8s6.7-1.3 9.2-3.8l2-2c.3-.4.6-.9.6-1.4z"/></svg>