<svg class="icon" viewBox="0 0 1024 1024" xmlns="http://www.w3.org/2000/svg"><defs><style/></defs><path d="M726.11 367.71l4.654-4.655h2.327v-9.31a46.545 46.545 0 0 0 0-6.981v-20.946l-6.982-6.982-6.982-4.654h-55.854l-4.655 4.654h-2.327L530.618 451.491 404.945 318.836a46.545 46.545 0 0 0-51.2-11.636l-16.29 9.31-6.982 9.308a46.545 46.545 0 0 0 4.654 55.855l132.655 125.672-128 137.31a46.545 46.545 0 0 0-4.655 58.181l6.982 6.982 6.982 4.655h48.873l6.981-6.982 25.6-25.6 100.073-107.055 125.673 132.655 6.982 4.654h51.2l6.982-4.654 6.981-6.982 4.655-6.982v-13.963a46.545 46.545 0 0 0 0-6.982v-11.637h-2.327v-6.981l-128-137.31 121.018-146.618z"/><path d="M512 0a512 512 0 1 0 512 512A512 512 0 0 0 512 0zm0 930.91A418.91 418.91 0 1 1 930.91 512 418.91 418.91 0 0 1 512 930.91z"/></svg>