<svg id="图层_1" xmlns="http://www.w3.org/2000/svg" viewBox="0 0 41 41" enable-background="new 0 0 41 41"><g id="Page-1"><g id="close-copy" transform="translate(-4 -4)"><defs><filter id="Adobe_OpacityMaskFilter" filterUnits="userSpaceOnUse" x="4" y="4" width="40.1" height="40.1"><feColorMatrix values="1 0 0 0 0 0 1 0 0 0 0 0 1 0 0 0 0 0 1 0"/></filter></defs><mask maskUnits="userSpaceOnUse" x="4" y="4" width="40.1" height="40.1" id="mask-2"><g class="st0"><path id="path-1" class="st1" d="M0 0h48v48H0z"/></g></mask><path id="Combined-Shape" class="st2" d="M24 21.2L7.4 4.6c-.8-.8-2-.8-2.8 0-.8.8-.8 2 0 2.8L21.2 24 4.6 40.6c-.8.8-.8 2 0 2.8.8.8 2 .8 2.8 0L24 26.9l16.6 16.6c.8.8 2 .8 2.8 0 .8-.8.8-2 0-2.8L26.9 24 43.5 7.4c.8-.8.8-2 0-2.8-.8-.8-2-.8-2.8 0L24 21.2z"/></g></g></svg>
