<?xml version="1.0" encoding="UTF-8"?>
<svg  viewBox="0 0 50 50" version="1.1" xmlns="http://www.w3.org/2000/svg" xmlns:xlink="http://www.w3.org/1999/xlink">
<path d="M50,47.2765625 L50,50 L49.0108913,50 L44.8430176,45.7140625 L48.4375,45.7140625 C49.3004449,45.7140625 50,46.4136176 50,47.2765625 Z M41.4289063,38.5710938 L40.6212492,41.4289062 L33.5622029,34.2859375 L45.7140625,34.2859375 L45.7140625,5.0671875 C45.7140625,4.63571504 45.364285,4.2859375 44.9328125,4.2859375 L4.2859375,4.2859375 L0,0 L48.4375,0 C49.3004449,0 50,0.699555078 50,1.5625 L50,37.0085938 C50,37.8715387 49.3004449,38.5710938 48.4375,38.5710938 L41.4289063,38.5710938 Z M28.9019782,29.6871181 L8.40319824,8.57109375 L39.8671875,8.57109375 C40.7301324,8.57109375 41.4296875,9.27064883 41.4296875,10.1335938 L41.4296875,28.4375 C41.4296875,29.3004449 40.7301324,30 39.8671875,30 L28.9019782,29.6871181 Z" id="形状"></path>
</svg>