<svg xmlns="http://www.w3.org/2000/svg" viewBox="0 0 36 42"><path class="st0" d="M18 0C8.1 0 0 8.1 0 18c0 5.5 2.8 11.3 8.2 16.9 1.9 1.9 4 3.8 6.1 5.2.9.6 1.7 1.1 2.3 1.4l.6.3.8.3.8-.3.6-.3c.7-.3 1.5-.8 2.3-1.4 2.1-1.4 4.2-3.3 6.1-5.2C33.2 29.4 36 23.5 36 18c0-9.9-8.1-18-18-18zm6.9 32.1c-1.7 1.7-3.6 3.4-5.5 4.7-.5.3-1 .6-1.4.9-.4-.2-.9-.6-1.4-.9-1.8-1.3-3.8-2.9-5.5-4.7C6.5 27.3 4 22.4 4 18c0-7.7 6.3-14 14-14s14 6.3 14 14c0 4.5-2.5 9.3-7.1 14.1z"/><path class="st0" d="M18 12c-3.3 0-6 2.7-6 6s2.7 6 6 6 6-2.7 6-6-2.7-6-6-6zm0 8c-1.1 0-2-.9-2-2s.9-2 2-2 2 .9 2 2-.9 2-2 2z"/></svg>