<?xml version="1.0" encoding="utf-8"?>
<!-- Generator: Adobe Illustrator 21.0.0, SVG Export Plug-In . SVG Version: 6.00 Build 0)  -->
<svg version="1.1" id="图层_1" xmlns="http://www.w3.org/2000/svg" xmlns:xlink="http://www.w3.org/1999/xlink" x="0px" y="0px"
	 viewBox="0 0 48 48" style="enable-background:new 0 0 48 48;" xml:space="preserve">
<title>customer-service</title>
<desc>Created with Sketch.</desc>
<g id="Rectangle-85">
</g>
<path class="st0" d="M45,15h-6.1C38.4,7.7,32.4,2,25,2h-2C15.6,2,9.6,7.7,9.1,15H3c-1.1,0-2,0.9-2,2v16c0,1.1,0.9,2,2,2h8
	c1.1,0,2-0.9,2-2v-1.1V17c0-6.1,4.9-11,11-11s11,4.9,11,11v11c0,4.7-2.7,8.8-6.7,10.7C27.7,38.3,26.9,38,26,38h-4c-2.2,0-4,1.8-4,4
	c0,2.2,1.8,4,4,4h4c1.8,0,3.3-1.2,3.8-2.9c3.8-1.4,6.8-4.4,8.2-8.1H45c1.1,0,2-0.9,2-2V17C47,15.9,46.1,15,45,15z M7,31
	c-1.1,0-2-0.9-2-2v-8c0-1.1,0.9-2,2-2s2,0.9,2,2v8C9,30.1,8.1,31,7,31z M43,29c0,1.1-0.9,2-2,2s-2-0.9-2-2v-8c0-1.1,0.9-2,2-2
	s2,0.9,2,2V29z"/>
</svg>
