<svg xmlns="http://www.w3.org/2000/svg" viewBox="0 0 44 38"><path class="st0" d="M41.7 22c-1 .2-1.7 1.1-1.7 2.1V34H4v-9.9c0-1-.7-1.9-1.7-2.1-1.2-.2-2.3.8-2.3 2v12c0 1.1.9 2 2 2h40c1.1 0 2-.9 2-2V24c0-1.2-1.1-2.2-2.3-2z"/><path class="st0" d="M20.6 29.4l.3.3s.1.1.2.1.1.1.2.1.1 0 .2.1c.1 0 .1 0 .2.1h.8c.1 0 .1 0 .2-.1.1 0 .1 0 .2-.1.1 0 .1-.1.2-.1 0 0 .1 0 .1-.1l.3-.3 13-13c.8-.8.8-2 0-2.8-.8-.8-2-.8-2.8 0L24 23.2V2c0-1.1-.9-2-2-2s-2 .9-2 2v21.2l-9.6-9.6c-.8-.8-2-.8-2.8 0-.8.8-.8 2 0 2.8l13 13z"/></svg>