<svg xmlns="http://www.w3.org/2000/svg" viewBox="0 0 44 36"><path class="st0" d="M42 0H2C.9 0 0 .9 0 2v32c0 1.1.9 2 2 2h40c1.1 0 2-.9 2-2V2c0-1.1-.9-2-2-2zm-2 32H4V4h36v28z"/><path class="st0" d="M6 25c0 1.1.9 2 2 2s2-.9 2-2c0-2.8 2.2-5 5-5s5 2.2 5 5c0 1.1.9 2 2 2s2-.9 2-2c0-4.1-2.8-7.6-6.6-8.7C19 15.5 20 13.9 20 12c0-2.8-2.2-5-5-5s-5 2.2-5 5c0 1.9 1 3.5 2.6 4.3C8.8 17.4 6 20.9 6 25zm9-14c.6 0 1 .4 1 1s-.4 1-1 1-1-.4-1-1 .4-1 1-1zm12 3h6c1.1 0 2-.9 2-2s-.9-2-2-2h-6c-1.1 0-2 .9-2 2s.9 2 2 2zm0 6h6c1.1 0 2-.9 2-2s-.9-2-2-2h-6c-1.1 0-2 .9-2 2s.9 2 2 2zm0 6h8c1.1 0 2-.9 2-2s-.9-2-2-2h-8c-1.1 0-2 .9-2 2s.9 2 2 2z"/></svg>