<svg data-name="图层 1" xmlns="http://www.w3.org/2000/svg" viewBox="0 0 33.1 14.9"><path class="cls-1" d="M32.6.7a2 2 0 0 0-2.8-.2 20.4 20.4 0 0 1-13.7 5.2C10.9 5.8 6.8 4.1 3.5.6A2 2 0 0 0 .7.5a2 2 0 0 0-.1 2.8 20.2 20.2 0 0 0 3.7 3.1L2.4 9.3a2.1 2.1 0 0 0 .1 2.4 2 2 0 0 0 3.2-.2l2.2-3.4a20.1 20.1 0 0 0 3.5 1l-.6 3a2.1 2.1 0 0 0 .9 2.3 2 2 0 0 0 3-1.3l.8-3.6h.8l3.5-.3.8 3.7a2.1 2.1 0 0 0 2.2 1.7 2 2 0 0 0 1.7-2.4l-.8-3.9 2.6-1v.3l2.1 3.4a2.1 2.1 0 0 0 2.7.8 2 2 0 0 0 .7-2.9l-2.2-3.4a25.8 25.8 0 0 0 2.8-2.1 2 2 0 0 0 .2-2.7z"/></svg>