<svg xmlns="http://www.w3.org/2000/svg" viewBox="0 0 44 44"><path class="st0" d="M22 0C9.9 0 0 9.9 0 22s9.9 22 22 22 22-9.9 22-22S34.1 0 22 0zm0 40c-9.9 0-18-8.1-18-18S12.1 4 22 4s18 8.1 18 18-8.1 18-18 18z"/><path class="st0" d="M21.4 29.8c-.8 0-1.5.3-2.1.8-.6.5-.8 1.2-.8 2s.3 1.5.8 2c.6.5 1.2.8 2.1.8.8 0 1.5-.3 2.1-.8s.9-1.2.9-2.1c0-.8-.3-1.5-.8-2-.7-.5-1.4-.7-2.2-.7zM27.8 10c-1.3-1.4-3.3-2-5.7-2-2.8 0-5 .8-6.6 2.4-1.7 1.6-2.5 3.7-2.5 6.5h4.3c0-1.6.3-2.8.9-3.7.7-1.1 1.9-1.5 3.5-1.5 1.3 0 2.3.3 3 1.1.7.7 1.1 1.7 1.1 2.9 0 .9-.3 1.8-1 2.7l-.5.5c-2.5 2.2-3.9 3.8-4.4 4.8s-.8 2.3-.8 3.7v.5h4.3v-.5c0-.9.2-1.7.6-2.5.3-.7.8-1.3 1.5-1.9 1.8-1.6 2.9-2.6 3.2-3 .9-1.2 1.4-2.8 1.4-4.6 0-2.3-.8-4.1-2.3-5.4z"/></svg>