<svg xmlns="http://www.w3.org/2000/svg" viewBox="0 0 44 44"><path class="st0" d="M43.3 20.5L23.4.6c-.8-.8-2-.8-2.8 0L.7 20.5c-.7.7-.9 1.8-.3 2.6.7 1 2.2 1.1 3 .3L5 21.8V42c0 1.1.9 2 2 2h30c1.1 0 2-.9 2-2V21.8l1.6 1.6c.4.4.9.6 1.4.6.6 0 1.1-.2 1.5-.7.7-.8.6-2-.2-2.8zM35 40H9V17.8l13-13 13 13V40z"/><path class="st0" d="M20 14v10.3c-2.9.9-5 3.5-5 6.7 0 3.9 3.1 7 7 7s7-3.1 7-7c0-3.2-2.1-5.8-5-6.7V21h3c1.1 0 2-.9 2-2s-.9-2-2-2h-3v-3c0-1.1-.9-2-2-2s-2 .9-2 2zm5 17c0 1.7-1.3 3-3 3s-3-1.3-3-3 1.3-3 3-3 3 1.3 3 3z"/></svg>