<svg xmlns="http://www.w3.org/2000/svg" viewBox="0 0 44 44"><path class="st0" d="M43.3 20.5L23.4.6c-.8-.8-2-.8-2.8 0L.7 20.5c-.7.7-.9 1.8-.3 2.6.7 1 2.2 1.1 3 .3L5 21.8V42c0 1.1.9 2 2 2h30c1.1 0 2-.9 2-2V21.8l1.6 1.6c.4.4.9.6 1.4.6.6 0 1.1-.2 1.5-.7.7-.8.6-2-.2-2.8zM35 40H9V17.8l13-13 13 13V40z"/><path class="st0" d="M22 21h-.1c0-.1-.1-.2-.1-.3l-2-3.5c-.6-1-1.8-1.3-2.7-.7-1 .6-1.3 1.8-.7 2.7l1.6 2.7h-2c-1.1 0-2 .9-2 2s.9 2 2 2h4v2h-4c-1.1 0-2 .9-2 2s.9 2 2 2h4v3c0 1.1.9 2 2 2s2-.9 2-2v-3h4c1.1 0 2-.9 2-2s-.9-2-2-2h-4v-2h4c1.1 0 2-.9 2-2s-.9-2-2-2h-1.8l1.6-2.7c.6-1 .2-2.2-.7-2.7-1-.6-2.2-.2-2.7.7l-2 3.5c-.1.1-.1.2-.1.3H22z"/></svg>