<svg viewBox="0 0 44 28" xmlns="http://www.w3.org/2000/svg"><path d="M29.277 20.391c1.136-.325 2.435-.974 3.734-1.299 1.299.974 2.598 2.111 3.734 3.572.163.163.325.487.487.487v10.554c2.76.65 5.683 1.299 7.956 2.598.325.162.65.324.812.649-.812 0-1.624-.325-2.598-.487-5.682-1.461-12.502-1.786-19.483-1.786-6.982 0-13.963.325-19.484 1.786-.811.162-1.623.487-2.435.65 0-.325.325-.488.65-.65 1.785-1.137 4.22-1.624 6.494-2.273v-3.41c0-.162.65-.487.974-.65 2.11-1.298 4.546-2.76 6.82-4.058v-9.58c0-.487-.163-.974 0-1.298 0-.163.486-.488.811-.65 1.786-1.299 3.41-2.598 5.196-3.897.324-.162.65-.487.974-.649h.162c.487.162.974.65 1.461 1.137a27.673 27.673 0 0 1 3.085 3.084l.65.65c.162.325 0 .974 0 1.299v4.221zm-5.196-8.118l-4.87 3.897c-.163.162-.65.487-.65.65v16.235c1.786-.162 3.572-.162 5.52-.162 0-6.982.163-13.8 0-20.62zm5.52 10.391c0 3.41-.162 6.82-.162 10.229.974.162 2.273.325 3.41.487V21.365c-1.137.325-2.273.65-3.248 1.3zm-12.826 6.332c-1.786.974-3.41 2.111-4.709 3.572-.162.325-.162.812-.162 1.3 1.624-.326 3.247-.488 4.87-.813v-4.059z" fill="#ED8B41" mask="url(#a)" transform="translate(-2 -10)"/></svg>