<svg id="图层_1" data-name="图层 1" xmlns="http://www.w3.org/2000/svg" viewBox="0 0 46 39"><defs><style>.cls-1{fill:none;}</style></defs><title>pic-line</title><path class="cls-1" d="M20.2,32.5l-.8.5a11.4,11.4,0,0,1-6.3,1.7A21.8,21.8,0,0,1,5,32.9V37a3,3,0,0,0,3,3H40a3,3,0,0,0,3-3V28.9C37.6,22.6,28.5,27.2,20.2,32.5Z" transform="translate(-1 -5)"/><circle class="cls-1" cx="13.5" cy="13.5" r="2.5"/><path class="cls-1" d="M40,9H8a3,3,0,0,0-3,3V28.6c5.3,2.5,9.5,2.9,12.3,1.1l.8-.5c5.2-3.4,16.6-10.7,24.9-5.5V12A3,3,0,0,0,40,9ZM14.5,25A6.5,6.5,0,1,1,21,18.5,6.5,6.5,0,0,1,14.5,25Z" transform="translate(-1 -5)"/><path class="cls-2" d="M40,5H8a7,7,0,0,0-7,7V37a7,7,0,0,0,7,7H40a7,7,0,0,0,7-7V12A7,7,0,0,0,40,5Zm3,32a3,3,0,0,1-3,3H8a3,3,0,0,1-3-3V32.9a21.8,21.8,0,0,0,8.2,1.9A11.4,11.4,0,0,0,19.4,33l.8-.5c8.2-5.3,17.3-9.9,22.8-3.6Zm0-13.3c-8.4-5.2-19.7,2.1-24.9,5.5l-.8.5c-2.8,1.8-6.9,1.4-12.3-1.1V12A3,3,0,0,1,8,9H40a3,3,0,0,1,3,3Z" transform="translate(-1 -5)"/><path class="cls-2" d="M14.5,12A6.5,6.5,0,1,0,21,18.5,6.5,6.5,0,0,0,14.5,12Zm0,9A2.5,2.5,0,1,1,17,18.5,2.5,2.5,0,0,1,14.5,21Z" transform="translate(-1 -5)"/></svg>
