<svg xmlns="http://www.w3.org/2000/svg" viewBox="0 0 36 44"><path class="st0" d="M18 0L1.5 4.6C.6 4.8 0 5.6 0 6.5v22c0 2.8 1.5 5.4 3.8 6.8L18 44l14.2-8.7c2.4-1.4 3.8-4.1 3.8-6.8v-22c0-.9-.6-1.7-1.5-1.9L18 0zm14 28.5c0 1.4-.7 2.7-1.9 3.4L18 39.3 5.9 31.9c-1.2-.7-1.9-2-1.9-3.4V8l14-3.9L32 8v20.5z"/><path class="st0" d="M12 15c0 2.6 1.7 4.8 4 5.6V33c0 1.1.9 2 2 2s2-.9 2-2v-4h4c1.1 0 2-.9 2-2s-.9-2-2-2h-4v-4.4c2.3-.8 4-3 4-5.6 0-3.3-2.7-6-6-6s-6 2.7-6 6zm8 0c0 1.1-.9 2-2 2s-2-.9-2-2 .9-2 2-2 2 .9 2 2z"/></svg>