<svg class="icon" viewBox="0 0 1024 1024" xmlns="http://www.w3.org/2000/svg"><defs><style/></defs><path d="M512 0a512 512 0 1 0 512 512A512 512 0 0 0 512 0zm0 930.91A418.91 418.91 0 1 1 930.91 512 418.91 418.91 0 0 1 512 930.91z"/><path d="M507.345 325.818l-46.545 4.655v-30.255a20.945 20.945 0 0 0-34.91-18.618l-114.035 79.127-4.655 4.655a20.945 20.945 0 0 0 4.655 30.254l114.036 79.128 11.636 4.654a20.945 20.945 0 0 0 20.946-20.945v-55.855a162.91 162.91 0 1 1-32.582 295.564l-34.91 60.509a232.727 232.727 0 1 0 116.364-432.873z"/></svg>