<?xml version="1.0" encoding="utf-8"?>
<svg version="1.1" id="图层_1" xmlns="http://www.w3.org/2000/svg" xmlns:xlink="http://www.w3.org/1999/xlink" x="0px" y="0px"
	 viewBox="0 0 44 44" style="enable-background:new 0 0 44 44;" xml:space="preserve">
<g id="Rectangle-83">
</g>
<g>
	<path class="st0" d="M22,0C9.9,0,0,9.9,0,22c0,12.1,9.9,22,22,22s22-9.9,22-22C44,9.9,34.1,0,22,0z M22,40c-9.9,0-18-8.1-18-18
		S12.1,4,22,4c9.9,0,18,8.1,18,18S31.9,40,22,40z"/>
	<path class="st0" d="M32,26H22v-8h3.8c0.2,0,0.5-0.1,0.7-0.3c0.4-0.4,0.5-1,0.1-1.4l-4.9-5.5c-0.1-0.1-0.1-0.2-0.2-0.2l-0.6-0.7
		c0,0-0.1-0.1-0.1-0.1c-0.4-0.4-1-0.3-1.4,0.1l-0.6,0.7c-0.1,0.1-0.2,0.2-0.2,0.2l-4.9,5.5c-0.2,0.2-0.3,0.4-0.3,0.7
		c0,0.6,0.4,1,1,1H18v10c0,0.6,0.2,1.1,0.6,1.4c0.4,0.4,0.9,0.6,1.4,0.6h12c1.1,0,2-0.9,2-2C34,26.9,33.1,26,32,26z"/>
</g>
</svg>
