<svg id="图层_1" data-name="图层 1" xmlns="http://www.w3.org/2000/svg" viewBox="0 0 44 44"><defs><style>.cls-1{fill:none}</style></defs><path class="cls-1" d="M24 6.2a18 18 0 1 0 18 18 18 18 0 0 0-18-18zm12.4 14.7L24.5 31.6a2 2 0 0 1-2.2.3 2 2 0 0 1-1-.5l-6.8-5.9a2 2 0 0 1 2.6-3l5.9 5.1 10.7-9.7a2 2 0 1 1 2.7 3z" transform="translate(-2 -2.2)"/><path class="cls-2" d="M36.5 18.1a2 2 0 0 0-2.8-.1L23 27.6l-5.8-5.1a2 2 0 0 0-2.6 3l6.8 5.9a2 2 0 0 0 1 .5 2 2 0 0 0 2.2-.3l11.8-10.7a2 2 0 0 0 .1-2.8z" transform="translate(-2 -2.2)"/><path class="cls-2" d="M24 2.2a22 22 0 1 0 22 22 22 22 0 0 0-22-22zm0 40a18 18 0 1 1 18-18 18 18 0 0 1-18 18z" transform="translate(-2 -2.2)"/></svg>
