<?xml version="1.0" encoding="UTF-8"?>
<svg width="50px" height="50px" viewBox="0 0 50 50" version="1.1" xmlns="http://www.w3.org/2000/svg" xmlns:xlink="http://www.w3.org/1999/xlink">
<path d="M6.13252222,24.4205821 C6.07680081,24.4243689 6.0218448,24.4059528 5.97965626,24.3693558 C5.74222616,24.301054 5.65440954,24.1660766 5.72515068,23.9627974 L7.30341041,14.6721247 L0.438265215,14.6721247 C0.289114016,14.6837335 0.147973768,14.603174 0.082120053,14.4688455 C-0.0197146657,14.3257148 0.00234775296,14.128904 0.133346404,14.0118739 L10.7095567,0.205963587 C10.8453472,0.00268438784 10.9974001,-0.0298402841 11.1673415,0.104324 C11.3364698,0.1384749 11.421847,0.274265413 11.421847,0.510882399 L9.84521355,9.79992881 L15.8972419,9.79992881 C16.0463415,9.7885502 16.1873615,9.86904109 16.2533871,10.003208 C16.2873214,10.1536419 16.2873214,10.3097457 16.2533871,10.4601796 L6.49029361,24.2652768 C6.39781664,24.3645368 6.26818534,24.4208086 6.13252222,24.4205821 Z" id="路径"></path>               
</svg>