<svg  viewBox="0 0 14 14" version="1.1" >

    <g >
        <path d="M7,0 C6.0354,0 5.12645,0.182 4.2742,0.5467 C3.4216,0.9114 2.6782,1.4105 2.0447,2.0447 C1.4105,2.6782 0.9114,3.4216 0.5467,4.2742 C0.18235,5.12645 0,6.0354 0,7 C0,7.9646 0.182,8.87355 0.5467,9.7258 C0.9114,10.5784 1.4105,11.3218 2.0447,11.9553 C2.6782,12.5895 3.4216,13.0886 4.2742,13.4533 C5.12645,13.81765 6.0354,14 7,14 C7.9646,14 8.87355,13.818 9.7258,13.4533 C10.5784,13.0886 11.3218,12.5895 11.9553,11.9553 C12.5895,11.3218 13.0886,10.5784 13.4533,9.7258 C13.81765,8.87355 14,7.9646 14,7 C14,6.0354 13.818,5.12645 13.4533,4.2742 C13.0886,3.4216 12.5895,2.6782 11.9553,2.0447 C11.3218,1.4105 10.5784,0.9114 9.7258,0.5467 C8.87355,0.18235 7.9646,0 7,0 Z M6.42775,10.73555 C6.27356078,10.5855243 6.18830302,10.3783973 6.1922,10.1633 C6.1922,9.9393 6.27095,9.74855 6.42775,9.5914 C6.5777159,9.43708215 6.78485055,9.35169453 7,9.3555 C7.22435,9.3555 7.4151,9.4339 7.57225,9.59105 C7.72905,9.7482 7.8078,9.9386 7.8078,10.16295 C7.8078,10.3873 7.72905,10.57805 7.57225,10.7352 C7.42222427,10.8893892 7.2150973,10.974647 7,10.97075 C6.7849027,10.974997 6.57777573,10.8897392 6.42775,10.73555 Z M7.57225,8.04335 C7.42222427,8.19753922 7.2150973,8.28279698 7,8.2789 C6.7849027,8.28279698 6.57777573,8.19753922 6.42775,8.04335 C6.27356078,7.89332427 6.18830302,7.6861973 6.1922,7.4711 L6.1922,3.7016 C6.1922,3.4776 6.27095,3.28685 6.42775,3.1297 C6.57783553,2.97563939 6.78495482,2.89051147 7,2.8945 C7.22435,2.8945 7.4151,2.97325 7.57225,3.13005 C7.72905,3.2872 7.8078,3.47795 7.8078,3.7023 L7.8078,7.4718 C7.8078,7.69545 7.72905,7.8862 7.57225,8.04335 Z" ></path>
    </g>
</svg>
