
<svg viewBox="0 0 14 14" version="1.1" xmlns="http://www.w3.org/2000/svg" xmlns:xlink="http://www.w3.org/1999/xlink">
    <!-- Generator: Sketch 50 (54983) - http://www.bohemiancoding.com/sketch -->
    <title>Shape-green</title>
    <desc>Created with Sketch.</desc>
    <defs></defs>
    <g id="icon" stroke="none" stroke-width="1" fill="none" fill-rule="evenodd">
        <path d="M6.98148427,0 C3.08995181,0 0,3.13486192 0,7 C0,10.8651221 3.13377875,14 6.99931245,14 C10.8648142,14 14,10.866513 14,7 C14.0001119,3.13486192 10.8717056,0 6.98148427,0 Z M11.4541036,5.11196507 C11.4541036,5.11196507 7.18840311,9.62524981 6.64306859,10.1705148 C6.25658877,10.5569407 5.77708261,10.4240178 5.57420909,10.2225392 L2.5281482,7.43293448 C2.24721441,7.13842266 2.24721441,6.66017866 2.5281482,6.36565083 C2.80909796,6.07104307 3.26258937,6.07104307 3.54350715,6.36565083 L6.06621896,8.63184593 C6.06621896,8.62770509 10.4386647,4.04466543 10.4386647,4.04466543 C10.7195825,3.75007365 11.1731378,3.75007365 11.4541036,4.04466543 C11.7349734,4.33925721 11.7349734,4.8173573 11.4541036,5.11196507 Z" id="Shape-green" fill="#09B300" fill-rule="nonzero"></path>
    </g>
</svg>
