<?xml version="1.0" encoding="utf-8"?>
<!-- Generator: Adobe Illustrator 21.1.0, SVG Export Plug-In . SVG Version: 6.00 Build 0)  -->
<svg version="1.1" id="图层_1" xmlns="http://www.w3.org/2000/svg" xmlns:xlink="http://www.w3.org/1999/xlink" x="0px" y="0px"
	 viewBox="0 0 48 48" style="enable-background:new 0 0 48 48;" xml:space="preserve">
<style type="text/css">
	.st0{fill:url(#SVGID_1_);}
	.st1{fill:url(#SVGID_2_);}
</style>
<g transform="translate(1 1)" >
	<linearGradient id="SVGID_1_" gradientUnits="userSpaceOnUse" x1="38.1929" y1="43.1819" x2="24.778" y2="25.1657">
		<stop  offset="0" style="stop-color:#FFFFFF"/>
		<stop  offset="1" style="stop-color:#FF822E"/>
	</linearGradient>
	<path class="st0" d="M47.8,24.6c-0.1-3.2-0.8-6.3-2-9.2c-1.3-2.9-3.1-5.5-5.4-7.7c-2.3-2.2-4.9-3.9-7.8-5c-2.9-1.1-6-1.7-9.1-1.6
		c-3.1,0.1-6.2,0.7-9,2C11.6,4.2,9.1,6,7,8.2S3.2,13,2.1,15.8c-1.1,2.8-1.6,5.8-1.6,8.8c0.1,3,0.7,6,1.9,8.7c1.2,2.7,2.9,5.2,5,7.2
		c2.1,2,4.6,3.6,7.4,4.7c2.7,1.1,5.6,1.6,8.5,1.5c2.9-0.1,5.8-0.7,8.4-1.9c2.6-1.2,5-2.8,7-4.9c2-2.1,3.5-4.5,4.5-7.1
		c0.6-1.6,1-3.3,1.3-4.9c0.1,0,0.1,0,0.2,0c1.7,0,3-1.4,3-3C47.8,24.8,47.8,24.7,47.8,24.6L47.8,24.6L47.8,24.6z M42.9,32.7
		c-1.1,2.5-2.7,4.8-4.7,6.7c-2,1.9-4.3,3.4-6.9,4.4c-2.5,1-5.2,1.4-7.9,1.4c-2.7-0.1-5.4-0.7-7.8-1.7c-2.4-1.1-4.6-2.6-6.5-4.6
		c-1.8-1.9-3.3-4.2-4.2-6.6c-0.9-2.4-1.4-5.1-1.3-7.6c0.1-2.6,0.6-5.2,1.7-7.5c1-2.3,2.5-4.5,4.4-6.2s4-3.1,6.4-4
		c2.3-0.9,4.9-1.3,7.4-1.3c2.5,0.1,5,0.6,7.2,1.6c2.3,1,4.3,2.4,6,4.2s3,3.9,3.9,6.1c0.9,2.3,1.3,4.7,1.2,7.1h0c0,0.1,0,0.2,0,0.3
		c0,1.6,1.2,2.9,2.7,3C44.1,29.5,43.6,31.1,42.9,32.7L42.9,32.7z">
    <animateTransform attributeName="transform" type="rotate" from="0 24 24" to="360 24 24" dur="0.9s" repeatCount="indefinite"/>
    </path>
	<linearGradient id="SVGID_2_" gradientUnits="userSpaceOnUse" x1="44.9397" y1="22.3564" x2="44.3396" y2="28.0459">
		<stop  offset="0" style="stop-color:#FF822E;stop-opacity:0"/>
		<stop  offset="1" style="stop-color:#FF822E"/>
	</linearGradient>
	<circle class="st1" cx="44.7" cy="25" r="3">
	<animateTransform attributeName="transform" type="rotate" from="0 24 24" to="360 24 24" dur="0.9s" repeatCount="indefinite"/></circle>
</g>
</svg>
