<?xml version="1.0" encoding="utf-8"?>
<!-- Generator: Adobe Illustrator 21.0.0, SVG Export Plug-In . SVG Version: 6.00 Build 0)  -->
<svg version="1.1" id="图层_1" xmlns="http://www.w3.org/2000/svg" xmlns:xlink="http://www.w3.org/1999/xlink" x="0px" y="0px"
	 viewBox="0 0 48 48" style="enable-background:new 0 0 48 48;" xml:space="preserve">
<title>top</title>
<desc>Created with Sketch.</desc>
<g id="Rectangle-85">
</g>
<g>
	<path class="st0" d="M25.6,11.8L25.6,11.8c-0.4-0.5-1-0.8-1.6-0.8s-1.2,0.3-1.5,0.7l-0.1,0.1L6.8,27.4c-0.8,0.8-0.8,2,0,2.8
		c0.8,0.8,2,0.8,2.8,0L22,17.8V43c0,1.1,0.9,2,2,2s2-0.9,2-2V17.8l12.4,12.4c0.8,0.8,2,0.8,2.8,0c0.8-0.8,0.8-2,0-2.8L25.6,11.8z"/>
	<path class="st0" d="M42,3H6C4.9,3,4,3.9,4,5c0,1.1,0.9,2,2,2h36c1.1,0,2-0.9,2-2C44,3.9,43.1,3,42,3z"/>
</g>
</svg>
