<?xml version="1.0" encoding="utf-8"?>
<!-- Generator: Adobe Illustrator 21.1.0, SVG Export Plug-In . SVG Version: 6.00 Build 0)  -->
<svg version="1.1" id="图层_1" xmlns="http://www.w3.org/2000/svg" xmlns:xlink="http://www.w3.org/1999/xlink" x="0px" y="0px"
	 viewBox="0 0 48 48" style="enable-background:new 0 0 48 48;" xml:space="preserve">
<style type="text/css">
	.st0{clip-path:url(#SVGID_2_);}
	.st1{clip-path:url(#SVGID_4_);}
</style>
<g>
	<defs>
		<path id="SVGID_1_" d="M31.5,25.2l5.1-8.9c0.4-0.6,0.1-1.4-0.5-1.8c0,0-0.1,0-0.1-0.1c-0.7-0.3-1.6-0.1-2,0.6l-3.9,6.6
			c-0.7,1.2-2.1,1.7-3.4,1.2l-7.4-2.9c-1.4-0.6-3,0.1-3.6,1.6c0,0,0,0,0,0l-4.5,11.4c-0.3,0.7,0.1,1.5,0.8,1.8c0,0,0,0,0,0
			c0.7,0.3,1.5-0.1,1.8-0.8l3.5-8.6c0.6-1.4,2.1-2.1,3.5-1.6l7.2,2.7C29.4,26.9,30.8,26.4,31.5,25.2z M43.9,37.6V10
			c0-1.5-1.2-2.8-2.8-2.8H6.8c-1.5,0-2.8,1.2-2.8,2.8v27.7c0,1.5,1.2,2.8,2.8,2.8h34.3C42.7,40.4,43.9,39.2,43.9,37.6z M7.4,5h33.1
			c3.1,0,5.5,2.5,5.5,5.5v26.5c0,3.1-2.5,5.5-5.5,5.5H7.4c-3.1,0-5.5-2.5-5.5-5.5V10.5C1.9,7.5,4.4,5,7.4,5z"/>
	</defs>
	<clipPath id="SVGID_2_">
		<use xlink:href="#SVGID_1_"  style="overflow:visible;"/>
	</clipPath>
	<g class="st0">
		<defs>
			<rect id="SVGID_3_" x="-194.6" y="-1265.2" width="3984.9" height="6140.6"/>
		</defs>
		<clipPath id="SVGID_4_">
			<use xlink:href="#SVGID_3_"  style="overflow:visible;"/>
		</clipPath>
		<rect x="-11.9" y="-8.8" class="st1" width="71.9" height="65.3"/>
	</g>
</g>
</svg>
