<svg xmlns="http://www.w3.org/2000/svg" viewBox="0 0 44 38"><path class="st0" d="M41.7 22c-1 .2-1.7 1.1-1.7 2.1V34H4v-9.9c0-1-.7-1.9-1.7-2.1-1.2-.2-2.3.8-2.3 2v12c0 1.1.9 2 2 2h40c1.1 0 2-.9 2-2V24c0-1.2-1.1-2.2-2.3-2z"/><path class="st0" d="M10.4 16.4L20 6.8V28c0 1.1.9 2 2 2s2-.9 2-2V6.8l9.6 9.6c.4.4.9.6 1.4.6s1-.2 1.4-.6c.8-.8.8-2 0-2.8l-13-13-.3-.3-.1-.1c-.1 0-.1-.1-.2-.1s-.1 0-.2-.1c-.1 0-.1 0-.2-.1h-1c-.1 0-.1 0-.2.1-.1 0-.1.1-.2.1s-.1.1-.2.1l-.3.3-13 13c-.8.8-.8 2 0 2.8.9.9 2.1.9 2.9.1z"/></svg>